<?xml version="1.0" encoding="utf-8"?>
<!-- Generator: Adobe Illustrator 25.4.1, SVG Export Plug-In . SVG Version: 6.00 Build 0)  -->
<svg version="1.0" id="katman_1" xmlns="http://www.w3.org/2000/svg" xmlns:xlink="http://www.w3.org/1999/xlink" x="0px" y="0px"
	 viewBox="0 0 1024 768" style="enable-background:new 0 0 1024 768;" xml:space="preserve">
<path d="M512,312.3c45.7,0,83,37.2,83,83s-37.2,83-83,83s-83-37.2-83-83S466.2,312.3,512,312.3z M512,295.7
	c-55,0-99.6,44.6-99.6,99.6s44.6,99.6,99.6,99.6s99.6-44.6,99.6-99.6S566.9,295.7,512,295.7z M565.9,368.5
	c-3.7,1.6-7.6,2.7-11.7,3.2c4.2-2.5,7.4-6.5,9-11.3c-3.9,2.3-8.3,4-13,5c-3.7-4-9-6.5-14.9-6.5c-13.2,0-22.9,12.3-19.9,25.1
	c-17-0.9-32-9-42.1-21.3c-5.4,9.2-2.8,21.2,6.3,27.3c-3.3-0.1-6.5-1-9.2-2.6c-0.2,9.5,6.6,18.3,16.4,20.3c-2.9,0.8-6,1-9.2,0.3
	c2.6,8.1,10.2,14,19.1,14.2c-8.6,6.7-19.4,9.7-30.3,8.5c9,5.8,19.8,9.2,31.3,9.2c37.9,0,59.3-32,58.1-60.8
	C559.7,376.2,563.2,372.6,565.9,368.5z"/>
<path d="M512,69.5c45.7,0,83,37.2,83,83s-37.2,83-83,83s-83-37.2-83-83S466.2,69.5,512,69.5z M512,52.9c-55,0-99.6,44.6-99.6,99.6
	S457,252,512,252s99.6-44.6,99.6-99.6S566.9,52.9,512,52.9z M495.4,135.9h-16.6v16.6h16.6v49.8h24.9v-49.8h15.1l1.5-16.6h-16.6V129
	c0-4,0.8-5.5,4.6-5.5h12v-20.7h-19.9c-14.9,0-21.5,6.6-21.5,19.1C495.4,121.8,495.4,135.9,495.4,135.9z"/>
<path d="M512,544.2c45.7,0,83,37.2,83,83s-37.2,83-83,83s-83-37.2-83-83S466.2,544.2,512,544.2z M512,527.6
	c-55,0-99.6,44.6-99.6,99.6s44.6,99.6,99.6,99.6s99.6-44.6,99.6-99.6S566.9,527.6,512,527.6z M495.4,594c0,4.6-3.7,8.4-8.3,8.4
	s-8.3-3.7-8.3-8.4c0-4.6,3.7-8.4,8.3-8.4S495.4,589.3,495.4,594z M495.4,610.5h-16.6v49.8h16.6V610.5z M520.3,610.5h-16.6v49.8h16.6
	v-23.7c0-14.3,16.6-15.6,16.6,0v23.7h16.6v-27.9c0-27.2-25.9-26.2-33.2-12.8C520.3,619.6,520.3,610.5,520.3,610.5z"/>
<path d="M780.5,354.6c-16.6-1.1-53.6-1.1-70.2,0c-18,1.2-20.1,12.1-20.2,40.6c0.1,28.5,2.2,39.4,20.2,40.6c16.6,1.1,53.6,1.1,70.2,0
	c18-1.2,20.1-12.1,20.2-40.6C800.6,366.7,798.5,355.8,780.5,354.6z M728.8,413.7v-36.9l39.6,18.4L728.8,413.7z M745.4,312.3
	c45.7,0,83,37.2,83,83s-37.2,83-83,83s-83-37.2-83-83S699.7,312.3,745.4,312.3z M745.4,295.7c-55,0-99.6,44.6-99.6,99.6
	s44.6,99.6,99.6,99.6s99.6-44.6,99.6-99.6S800.4,295.7,745.4,295.7z"/>
<path d="M285,312.3c45.7,0,83,37.2,83,83s-37.2,83-83,83s-83-37.2-83-83S239.3,312.3,285,312.3z M285,295.7
	c-55,0-99.6,44.6-99.6,99.6s44.6,99.6,99.6,99.6s99.6-44.6,99.6-99.6S340,295.7,285,295.7z M285,354.4c13.3,0,14.9,0,20.1,0.3
	c13.5,0.6,19.8,7,20.4,20.4c0.2,5.3,0.3,6.8,0.3,20.1c0,13.3,0,14.9-0.3,20.1c-0.6,13.4-6.9,19.8-20.4,20.4
	c-5.3,0.2-6.8,0.3-20.1,0.3c-13.3,0-14.9,0-20.1-0.3c-13.5-0.6-19.8-7-20.4-20.4c-0.2-5.2-0.3-6.8-0.3-20.1
	c0-13.3,0.1-14.9,0.3-20.1c0.6-13.4,6.9-19.8,20.4-20.4C270.1,354.5,271.7,354.4,285,354.4z M285,345.5c-13.5,0-15.2,0.1-20.5,0.3
	c-18.1,0.8-28.1,10.9-29,28.9c-0.2,5.3-0.3,7-0.3,20.5c0,13.5,0.1,15.2,0.3,20.5c0.8,18.1,10.9,28.1,29,29c5.3,0.2,7,0.3,20.5,0.3
	s15.2-0.1,20.5-0.3c18.1-0.8,28.1-10.9,28.9-29c0.2-5.3,0.3-7,0.3-20.5c0-13.5-0.1-15.2-0.3-20.5c-0.8-18.1-10.9-28.1-28.9-28.9
	C300.2,345.5,298.5,345.5,285,345.5z M285,369.7c-14.1,0-25.6,11.4-25.6,25.6c0,14.1,11.4,25.6,25.6,25.6
	c14.1,0,25.6-11.4,25.6-25.6C310.6,381.1,299.1,369.7,285,369.7z M285,411.8c-9.2,0-16.6-7.4-16.6-16.6c0-9.2,7.4-16.6,16.6-16.6
	c9.2,0,16.6,7.4,16.6,16.6C301.6,404.4,294.2,411.8,285,411.8z M311.6,362.7c-3.3,0-6,2.7-6,6c0,3.3,2.7,6,6,6c3.3,0,6-2.7,6-6
	S314.9,362.7,311.6,362.7z"/>
</svg>
